<svg width="91" height="24" viewBox="0 0 91 24" fill="none" xmlns="http://www.w3.org/2000/svg">
<g clip-path="url(#clip0_934_2319)">
<path d="M28.4222 15.6352L32.1583 5.63009C32.3177 5.20597 32.5831 4.82948 32.9294 4.53633C33.2535 4.25252 33.7004 4.13205 34.1474 4.13205C34.5944 4.13205 35.0407 4.25252 35.3655 4.53633C35.7319 4.81947 35.9762 5.22512 36.1379 5.63009L39.7921 15.6352C39.8703 15.8585 39.925 16.0894 39.9552 16.324C39.9592 16.5505 39.903 16.7741 39.7921 16.9719C39.6643 17.1403 39.5139 17.2902 39.3452 17.4177C39.149 17.5321 38.924 17.5881 38.6969 17.579C38.401 17.5968 38.1077 17.5146 37.8644 17.3457C37.6211 17.1767 37.442 16.9309 37.356 16.648L36.7876 14.9056H31.5496L30.9804 16.6071C30.9038 16.8985 30.7285 17.1544 30.4842 17.3316C30.2399 17.5087 29.9418 17.5961 29.6402 17.579C29.2815 17.5816 28.9345 17.452 28.6658 17.2149C28.4222 16.9719 28.2598 16.648 28.2598 16.324C28.3 16.0415 28.341 15.7972 28.4222 15.6352V15.6352ZM34.1078 6.96751L32.3596 12.3151H35.8943L34.1078 6.96751V6.96751Z" fill="#2E2E27"/>
<path d="M40.6861 18.7953V8.99438C40.6763 8.61118 40.8054 8.23734 41.0498 7.94146C41.2948 7.65764 41.6605 7.53309 42.0263 7.53309C42.3461 7.51647 42.6606 7.61942 42.9083 7.82183C43.1561 8.02423 43.3192 8.31152 43.3658 8.62752C43.6058 8.21835 43.9795 7.90382 44.4242 7.73659C44.8841 7.52926 45.3819 7.41896 45.8865 7.41262C46.7395 7.37314 47.5516 7.65628 48.2415 8.14292C48.9045 8.63835 49.4117 9.31258 49.7031 10.0861C50.0293 10.8978 50.1954 11.7646 50.1924 12.6391C50.1859 13.4637 50.0055 14.2776 49.6629 15.0281C49.3 15.7595 48.7721 16.3971 48.1207 16.8909C47.458 17.3659 46.6623 17.6209 45.8463 17.6199C45.4148 17.6215 44.9871 17.5389 44.5873 17.3769C44.141 17.2149 43.7746 16.9685 43.4095 16.6888V18.7538C43.4142 19.0193 43.3587 19.2825 43.2471 19.5236C43.1286 19.735 42.9616 19.9155 42.7598 20.0504C42.5521 20.1783 42.314 20.2487 42.0699 20.2546C41.7035 20.2546 41.3384 20.1327 41.0948 19.8503C40.8103 19.5664 40.6888 19.1615 40.6888 18.7973L40.6861 18.7953ZM43.3685 12.4383C43.3685 13.1257 43.5303 13.7744 43.896 14.3441C44.4242 15.1948 45.561 15.4364 46.414 14.9117C46.4536 14.8709 46.5369 14.8307 46.5764 14.7899C46.8988 14.5163 47.1499 14.1687 47.308 13.7771C47.4664 13.3774 47.549 12.9518 47.5516 12.522C47.5525 12.0795 47.4699 11.6408 47.308 11.2289C47.1495 10.8374 46.8985 10.49 46.5764 10.2161C46.2604 9.9458 45.8559 9.8005 45.4396 9.80772C45.0312 9.80427 44.6325 9.9322 44.3027 10.1725C43.9725 10.4131 43.73 10.7546 43.6121 11.1451C43.4569 11.5602 43.3745 11.9988 43.3685 12.4417" fill="#2E2E27"/>
<path d="M52.0158 16.0415V9.92412H51.4071C51.0823 9.92412 50.797 9.84313 50.5541 9.60014C50.347 9.36486 50.2317 9.06312 50.2293 8.75005C50.2268 8.6003 50.2543 8.45156 50.31 8.31251C50.3658 8.17345 50.4488 8.04686 50.5541 7.94011C50.7863 7.72715 51.0916 7.61119 51.4071 7.61614H52.0158V6.03574C52.0058 5.65237 52.1357 5.27843 52.3815 4.98351C52.6251 4.69969 52.9902 4.57513 53.3553 4.57513C53.5989 4.57513 53.8425 4.61733 54.0452 4.77932C54.2482 4.91291 54.4156 5.09369 54.5331 5.30612C54.6494 5.54542 54.7054 5.80943 54.6962 6.07521V7.65426H55.4673C55.801 7.64765 56.1281 7.74705 56.4015 7.93808C56.5317 8.04467 56.6332 8.18196 56.6968 8.33752C56.7604 8.49307 56.7842 8.66199 56.7659 8.82901C56.8068 9.15298 56.6458 9.47695 56.4015 9.71993C56.1572 9.92412 55.833 10.0038 55.4673 10.0038H54.6962V16.1198C54.7052 16.3856 54.6492 16.6495 54.5331 16.8889C54.4154 17.1011 54.248 17.2818 54.0452 17.4157C53.8377 17.5441 53.5994 17.6146 53.3553 17.6199C52.9902 17.6199 52.6251 17.4987 52.3815 17.2156C52.0963 16.8106 51.9721 16.4458 52.0158 16.0415" fill="#2E2E27"/>
<path d="M61.2342 7.41261C61.8832 7.41261 62.5744 7.53444 63.1449 7.82098C63.7253 8.10104 64.2487 8.48597 64.6885 8.95626C65.0979 9.44222 65.4596 10.0092 65.6629 10.5755C65.9051 11.1955 66.0291 11.8552 66.0287 12.5207C66.0329 13.186 65.9087 13.8459 65.6629 14.4645C65.4583 15.0677 65.1259 15.6199 64.6885 16.0837C64.2815 16.5614 63.7671 16.9364 63.1872 17.1781C62.576 17.4567 61.9103 17.5962 61.2383 17.5865C60.3617 17.5886 59.5018 17.3478 58.7544 16.8909C58.0229 16.4458 57.4579 15.7972 57.0485 15.0281C56.6474 14.2372 56.4386 13.3633 56.4391 12.4771C56.4384 11.8245 56.5623 11.1777 56.8042 10.5714C57.0405 9.9705 57.3695 9.41017 57.7793 8.91065C58.1887 8.42469 58.7128 8.06124 59.3215 7.77674C59.9294 7.53519 60.5778 7.41137 61.2322 7.41193L61.2342 7.41261ZM61.2322 9.84243C60.8159 9.83495 60.4113 9.98028 60.0953 10.2508C59.7747 10.5242 59.5254 10.871 59.3686 11.2615C59.0438 12.0951 59.0438 13.0198 59.3686 13.8533C59.527 14.245 59.7782 14.5925 60.1008 14.8661C60.4322 15.1219 60.8394 15.2607 61.2585 15.2607C61.6775 15.2607 62.0847 15.1219 62.4161 14.8661C62.7381 14.5925 62.9884 14.2449 63.1456 13.8533C63.4713 13.0199 63.4713 12.0949 63.1456 11.2615C62.9889 10.8696 62.7385 10.5219 62.4161 10.2488C62.0497 9.96494 61.6437 9.80363 61.2376 9.84038" fill="#2E2E27"/>
<path d="M68.4628 3.56577C68.7195 3.57137 68.9707 3.64161 69.1929 3.76995C69.4365 3.89178 69.5989 4.09461 69.762 4.29608C69.8903 4.50327 69.9609 4.74076 69.9668 4.98418C69.9668 5.18071 69.9273 5.37524 69.8505 5.55624C69.7737 5.73723 69.6613 5.90098 69.5198 6.03778C68.9916 6.60405 68.0581 6.64557 67.4904 6.11945L67.4085 6.03778C67.2673 5.9008 67.155 5.737 67.0782 5.55605C67.0014 5.3751 66.9618 5.18066 66.9615 4.98418C66.958 4.79326 66.9962 4.60386 67.0734 4.42911C67.1506 4.25436 67.2649 4.09842 67.4085 3.9721C67.7008 3.71567 68.0756 3.57223 68.4648 3.56781" fill="#2E2E27"/>
<path d="M67.1225 16.0415V8.99303C67.1124 8.60945 67.2424 8.23527 67.4882 7.94011C67.7305 7.65629 68.0962 7.53174 68.4627 7.53174C68.7056 7.53174 68.9492 7.57258 69.1533 7.73592C69.3545 7.87124 69.521 8.05195 69.6391 8.2634C69.7553 8.50251 69.811 8.76631 69.8015 9.03183V16.0796C69.811 16.346 69.7553 16.6107 69.6391 16.8508C69.5211 17.062 69.3546 17.2423 69.1533 17.3769C68.9453 17.5048 68.707 17.5753 68.4627 17.5811C68.0962 17.5811 67.7312 17.4599 67.4882 17.1727C67.2439 16.8086 67.0788 16.4438 67.1225 16.0395" fill="#2E2E27"/>
<path d="M80.4005 4.74049V16.0388C80.4098 16.3044 80.3543 16.5684 80.2387 16.8079C80.1206 17.0196 79.9536 17.2002 79.7515 17.3347C79.5437 17.4625 79.3057 17.533 79.0616 17.5389C78.4106 17.5797 77.8019 17.0931 77.7214 16.4458C77.4771 16.8542 77.112 17.1346 76.6651 17.3374C76.2197 17.544 75.7355 17.6541 75.2443 17.6607C74.4271 17.668 73.6293 17.4124 72.9693 16.9317C72.2961 16.4606 71.7629 15.817 71.4257 15.0689C71.0742 14.3213 70.8943 13.5049 70.8989 12.6792C70.8955 11.8053 71.0612 10.9389 71.3868 10.1276C71.6785 9.35383 72.1856 8.67922 72.8485 8.18307C73.539 7.69711 74.3497 7.41397 75.2027 7.45344C75.5047 7.45157 75.8055 7.49259 76.096 7.57527C76.3865 7.65089 76.6717 7.74571 76.9496 7.8591C77.2349 7.98025 77.4771 8.18307 77.7214 8.38589V4.74049C77.7112 4.357 77.841 3.98287 78.0865 3.68758C78.3301 3.40376 78.6959 3.27921 79.0616 3.27921C79.3045 3.27921 79.5488 3.32004 79.7515 3.48339C79.9538 3.61768 80.1208 3.79831 80.2387 4.01019C80.3609 4.21438 80.4005 4.45532 80.4005 4.73914V4.74049ZM77.7248 12.4363C77.7248 11.7876 77.5617 11.1397 77.196 10.6122C77.0293 10.36 76.7989 10.1562 76.528 10.0211C76.2571 9.88611 75.9553 9.8247 75.6531 9.8431C75.237 9.83611 74.8328 9.98139 74.5169 10.2515C74.1939 10.5243 73.9429 10.8721 73.7861 11.2642C73.6237 11.6761 73.541 12.1149 73.5425 12.5574C73.5401 12.8726 73.5812 13.1866 73.6646 13.4905C73.7396 13.811 73.8774 14.1136 74.0699 14.3808C74.233 14.6238 74.4794 14.8674 74.7209 14.9879C74.9897 15.1473 75.2967 15.2311 75.6094 15.2302C76.0148 15.2302 76.461 15.1084 76.7865 14.8259C77.1097 14.537 77.3599 14.176 77.5167 13.7723C77.644 13.338 77.7128 12.8887 77.7214 12.4363" fill="#2E2E27"/>
<path d="M89.7411 13.4082H84.0554C84.0804 13.6937 84.1703 13.9697 84.3182 14.2153C84.4661 14.461 84.6682 14.6698 84.9091 14.8259C85.4058 15.1445 85.9843 15.3131 86.5748 15.3112C86.9392 15.3112 87.2647 15.2711 87.5895 15.107C87.953 14.9565 88.3055 14.7809 88.6445 14.5816C88.9383 14.4185 89.2527 14.2956 89.5794 14.2161C89.7687 14.2076 89.9551 14.2648 90.1068 14.3781C90.2699 14.5013 90.4317 14.6211 90.5163 14.8246C90.6132 14.999 90.669 15.1931 90.6794 15.3922C90.6693 15.6993 90.5378 15.99 90.3136 16.2008C90.0098 16.4887 89.6679 16.734 89.2975 16.9297C88.8484 17.1656 88.3706 17.3429 87.8761 17.4572C87.3856 17.5845 86.8816 17.653 86.3749 17.6614C85.4809 17.6614 84.5467 17.4572 83.7756 17.0134C83.0175 16.5889 82.3975 15.9563 81.9891 15.1907C81.5797 14.3801 81.3388 13.4892 81.3797 12.5581C81.3793 11.9055 81.5032 11.2588 81.7448 10.6524C81.979 10.0419 82.3231 9.4793 82.7602 8.99235C84.0998 7.49498 86.293 7.00698 88.1211 7.85843C88.7009 8.13859 89.2239 8.52299 89.664 8.99235C90.0718 9.44824 90.4013 9.9682 90.6391 10.5312C90.8794 11.0665 91.0038 11.6463 91.0042 12.2328C90.923 13.0019 90.5579 13.4082 89.7452 13.4082H89.7411ZM84.0192 11.6257H88.2842C88.2425 11.0713 87.9965 10.5519 87.5936 10.1678C87.192 9.80643 86.6714 9.60448 86.1306 9.60013C85.6008 9.59709 85.0909 9.80081 84.7098 10.1678C84.3133 10.5565 84.0685 11.0733 84.0192 11.6257" fill="#2E2E27"/>
<path d="M23.3384 4.89366C22.7925 2.68369 21.4086 1.29794 19.1526 0.784758C16.8489 0.266991 14.495 0.00382622 12.1336 1.00568e-05C9.79809 -0.00190016 7.47038 0.268319 5.19776 0.80518C2.98136 1.32177 1.46987 2.5394 0.910313 4.77047C0.308299 7.13209 0.00275063 9.55916 0.000688334 11.9959C-0.00474076 14.3883 0.273328 16.773 0.829109 19.1002C1.36683 21.3109 2.75413 22.6939 5.01079 23.2105C9.60282 24.2627 14.3743 24.2627 18.9663 23.2105C21.1827 22.6939 22.6935 21.4749 23.2517 19.2248C23.8556 16.8623 24.1618 14.434 24.1634 11.9959C24.1697 9.60436 23.8928 7.22042 23.3384 4.89366V4.89366ZM6.10807 14.1868L5.92178 14.001C5.64741 13.6733 5.48066 13.2694 5.44411 12.844L5.34107 6.89672C5.31991 6.44275 5.6304 6.27668 6.0023 6.54552L11.6764 10.6333L6.37557 14.4121L6.10807 14.1868ZM18.8408 12.8848C18.804 13.4018 18.5668 13.8842 18.1795 14.2297L12.7955 18.4843C12.6073 18.6251 12.3784 18.7012 12.1431 18.7012C11.9079 18.7012 11.6789 18.6251 11.4908 18.4843L7.57862 15.3453L6.83277 14.7674L12.1554 10.9682L14.7649 9.1101L18.4252 6.50332C18.7364 6.38081 18.9424 6.5462 18.9424 6.93824L18.8408 12.8848Z" fill="#2E2E27"/>
</g>
<defs>
<clipPath id="clip0_934_2319">
<rect width="91" height="24" fill="white"/>
</clipPath>
</defs>
</svg>
