<svg width="127" height="32" viewBox="0 0 127 32" fill="none" xmlns="http://www.w3.org/2000/svg">
<g clip-path="url(#clip0_5105_1246)">
<path d="M39.1104 21.6238L44.3599 7.4396C44.5855 6.81452 44.9529 6.2738 45.4612 5.87593C45.941 5.47807 46.534 5.27865 47.1546 5.27865C47.7752 5.25085 48.3958 5.47807 48.8765 5.87593C49.3848 6.30256 49.7513 6.84328 49.9493 7.46836L55.057 21.6526C55.1703 21.9651 55.255 22.2786 55.255 22.6189C55.255 22.9315 55.1703 23.245 55.0018 23.501C54.8324 23.756 54.6068 23.9841 54.3526 24.0973C54.0709 24.2401 53.7596 24.3245 53.4493 24.3245C52.5745 24.3811 51.7845 23.8413 51.5303 22.988L50.7393 20.5433H43.4861L42.696 22.9602C42.4981 23.8125 41.708 24.3811 40.8332 24.3245C40.325 24.3245 39.8452 24.1538 39.4778 23.7847C39.1113 23.4434 38.9133 22.989 38.9133 22.5058C38.9419 22.1933 38.998 21.9085 39.1104 21.6238ZM47.0975 9.34361L44.6426 16.905H49.5819L47.1546 9.34361H47.0975Z" fill="#171717"/>
<path d="M56.3553 26.1154V12.215C56.3267 11.6752 56.5247 11.1345 56.8636 10.7079C57.2024 10.31 57.7107 10.1106 58.2181 10.1394C59.2061 10.1394 59.8553 10.6513 60.1094 11.7021C60.4759 11.1336 60.9842 10.6791 61.6058 10.4232C62.2549 10.1394 62.9603 9.96778 63.6656 9.99654C64.8516 9.96778 66.0081 10.3378 66.9686 11.0482C67.8995 11.7587 68.6048 12.726 69.0284 13.8065C69.5091 14.9435 69.7337 16.1937 69.7337 17.417C69.7337 18.6403 69.4806 19.7764 68.9723 20.8281C68.4925 21.8798 67.7301 22.7896 66.7706 23.4722C65.8387 24.1261 64.7107 24.4961 63.5523 24.4674C62.9317 24.4674 62.3396 24.3533 61.7466 24.1261C61.1536 23.8989 60.5892 23.5863 60.1094 23.1597V26.0876C60.1094 26.4577 60.0247 26.8268 59.8553 27.1671C59.7134 27.4797 59.4603 27.7356 59.1775 27.9063C58.8958 28.0769 58.5569 28.1613 58.2181 28.1613C57.7098 28.1901 57.2015 27.9629 56.8636 27.5928C56.5247 27.1949 56.3277 26.6552 56.3553 26.1154ZM60.1094 17.1323C60.0809 18.0986 60.3626 19.0372 60.8709 19.8617C61.6334 21.0841 63.242 21.4254 64.4271 20.6575C64.5118 20.6009 64.568 20.5443 64.6527 20.5156C65.1048 20.1465 65.4427 19.6345 65.6693 19.0938C65.8949 18.5253 66.0081 17.9002 66.0081 17.2741C66.0081 16.6481 65.8949 16.023 65.6693 15.4545C65.4713 14.886 65.1324 14.4028 64.6812 14.0049C64.2301 13.6349 63.6646 13.4364 63.0726 13.4364C62.4796 13.4076 61.9161 13.6071 61.4639 13.9762C61.0127 14.3462 60.6739 14.8007 60.4759 15.3404C60.2217 15.9089 60.1094 16.5062 60.1094 17.1313" fill="#171717"/>
<path d="M72.2458 22.221V13.5792H71.3996C70.9485 13.607 70.5249 13.4363 70.2146 13.1238C69.9033 12.8113 69.7348 12.3559 69.7634 11.9302C69.7634 11.5036 69.9319 11.0779 70.2431 10.7654C70.5534 10.4528 70.977 10.2822 71.4006 10.31H72.2468V8.0637C72.2182 7.52394 72.4172 6.98418 72.7551 6.5566C73.093 6.15873 73.6023 5.95932 74.1096 5.98808C74.4485 5.98808 74.7873 6.0734 75.0691 6.2431C75.3508 6.41375 75.5774 6.66972 75.7468 6.98227C75.9163 7.32357 76.0019 7.69267 76.0019 8.06178V10.2793H77.0737C77.5259 10.2505 77.977 10.3924 78.3721 10.6772C78.7385 10.9897 78.908 11.4441 78.8804 11.9283C78.908 12.4115 78.7385 12.8659 78.3721 13.1794C78.0046 13.4632 77.5535 13.6051 77.0737 13.5773H76.0019V22.2191C76.0019 22.5892 75.9163 22.9583 75.7468 23.2996C75.6059 23.6121 75.3518 23.8681 75.0691 24.0388C74.7873 24.2094 74.4475 24.2947 74.1096 24.2947C73.6023 24.3225 73.093 24.0953 72.7551 23.7262C72.4172 23.3284 72.2182 22.7886 72.2468 22.2201" fill="#171717"/>
<path d="M85.2283 9.96875C86.1602 9.96875 87.0911 10.1682 87.9373 10.566C88.7559 10.9361 89.4898 11.5046 90.0819 12.1863C90.6749 12.8689 91.1546 13.6646 91.4649 14.5179C91.8038 15.3989 91.9732 16.3375 91.9447 17.2751C91.9447 18.2137 91.7752 19.1801 91.4649 20.0611C91.1546 20.9134 90.7025 21.6814 90.1104 22.364C89.5174 23.0178 88.7845 23.5576 87.9649 23.9276C87.0901 24.3255 86.1592 24.5249 85.2273 24.4962C83.9852 24.5249 82.7725 24.1836 81.7273 23.5298C80.7117 22.8759 79.8931 21.9661 79.3286 20.8856C78.7642 19.7764 78.4824 18.5262 78.4824 17.2751C78.4824 16.3375 78.6528 15.4277 78.9622 14.5466C79.2725 13.6934 79.7522 12.8976 80.3452 12.1872C80.9382 11.5046 81.6721 10.9649 82.4907 10.567C83.3655 10.1691 84.2964 9.96971 85.2283 9.96971M85.2283 13.4096C84.6353 13.4096 84.0718 13.5802 83.6196 13.9781C83.1685 14.3482 82.801 14.8592 82.604 15.4277C82.3784 16.025 82.2651 16.65 82.2651 17.2751C82.2651 17.9002 82.3784 18.5262 82.604 19.0948C82.802 19.6345 83.1685 20.1465 83.6196 20.5165C84.5791 21.2269 85.906 21.2269 86.8655 20.5165C87.3167 20.1474 87.6556 19.6642 87.8812 19.0948C88.1067 18.4975 88.22 17.9012 88.22 17.2751C88.22 16.6491 88.1067 16.024 87.8812 15.4555C87.6841 14.887 87.3453 14.4038 86.8655 14.0059C86.3858 13.608 85.8213 13.4086 85.2283 13.4086" fill="#171717"/>
<path d="M95.3609 4.51074C95.7273 4.51074 96.0948 4.62483 96.4051 4.79548C96.7154 4.99489 96.9981 5.24991 97.1675 5.56245C97.3655 5.84623 97.4493 6.2163 97.4493 6.5576C97.4493 7.12612 97.2237 7.66587 96.8296 8.09346C96.0672 8.91796 94.7974 8.94576 93.9778 8.17879C93.9502 8.15003 93.8931 8.09346 93.8645 8.06566C93.4705 7.66683 93.2163 7.12708 93.2163 6.55856C93.2163 5.99004 93.4429 5.47809 93.8645 5.13678C94.2605 4.73988 94.7964 4.5117 95.3609 4.5117" fill="#FE6446"/>
<path d="M93.4989 22.2212V12.2141C93.4704 11.6743 93.6674 11.1346 94.0063 10.707C94.3451 10.3091 94.8534 10.1097 95.3608 10.1385C95.6997 10.1385 96.0385 10.2238 96.3203 10.3935C96.603 10.5641 96.8286 10.8201 96.9971 11.1327C97.1665 11.474 97.2512 11.8431 97.2512 12.2131V22.2192C97.2512 22.5893 97.1665 22.9584 96.9971 23.2997C96.8562 23.6123 96.602 23.8682 96.3203 24.0389C96.0385 24.2095 95.6997 24.2949 95.3608 24.2949C94.8525 24.3227 94.3451 24.0954 94.0063 23.7263C93.6398 23.3285 93.4704 22.7887 93.4989 22.2202" fill="#171717"/>
<path d="M112.155 6.15973V22.2211C112.155 22.5902 112.069 22.9603 111.9 23.3016C111.759 23.6141 111.505 23.8701 111.224 24.0407C110.941 24.2114 110.603 24.2967 110.264 24.2967C109.248 24.2967 108.627 23.7847 108.4 22.733C108.034 23.3016 107.526 23.7282 106.933 24.012C106.312 24.2967 105.635 24.4674 104.958 24.4674C103.8 24.4961 102.671 24.1261 101.74 23.4722C100.78 22.7906 100.046 21.8807 99.5386 20.829C99.0312 19.7764 98.7771 18.5837 98.7771 17.4179C98.7771 16.1668 99.0027 14.9454 99.4539 13.8074C99.8775 12.7279 100.583 11.7605 101.514 11.0501C102.473 10.3397 103.631 9.96966 104.816 9.99842C105.239 9.99842 105.663 10.055 106.086 10.1403C106.509 10.2256 106.904 10.3675 107.299 10.5669C107.694 10.7664 108.062 10.9936 108.4 11.3061V6.18945C108.373 5.64969 108.57 5.10993 108.909 4.68331C109.248 4.28544 109.755 4.08603 110.263 4.11479C110.602 4.11479 110.941 4.20011 111.251 4.37076C111.534 4.54142 111.76 4.79739 111.929 5.10993C112.069 5.42247 112.155 5.79158 112.155 6.16164M108.4 17.1341C108.429 16.1965 108.146 15.2867 107.638 14.5188C107.158 13.8084 106.312 13.3817 105.465 13.4095C104.873 13.4095 104.337 13.6089 103.884 13.9781C103.433 14.3759 103.094 14.8591 102.897 15.4276C102.671 16.0249 102.558 16.6212 102.558 17.2463C102.558 17.7017 102.615 18.1561 102.756 18.5828C102.868 19.0382 103.066 19.4351 103.319 19.8339C103.546 20.203 103.884 20.4877 104.25 20.7149C104.618 20.9422 105.07 21.0562 105.493 21.0275C106.086 21.0562 106.678 20.829 107.129 20.4599C107.581 20.0621 107.919 19.5501 108.117 18.9816C108.286 18.3843 108.399 17.7592 108.399 17.1341" fill="#171717"/>
<path d="M125.307 18.4965H117.319C117.403 19.321 117.827 20.0602 118.476 20.5146C119.181 20.9978 120 21.225 120.846 21.1972C121.354 21.1972 121.834 21.1119 122.285 20.9412C122.68 20.7706 123.189 20.5146 123.781 20.1742C124.176 19.9183 124.628 19.7476 125.079 19.6911C125.332 19.6911 125.616 19.7764 125.812 19.9192C126.038 20.0611 126.236 20.2883 126.405 20.5156C126.547 20.7428 126.631 21.0275 126.631 21.2835C126.603 21.7389 126.405 22.1367 126.095 22.4493C125.671 22.8759 125.192 23.2163 124.656 23.4722C124.006 23.7848 123.329 24.0407 122.624 24.2114C121.919 24.382 121.213 24.4674 120.507 24.4952C119.238 24.523 117.968 24.1826 116.838 23.5566C115.766 22.9603 114.919 22.0495 114.354 20.97C113.761 19.8329 113.451 18.554 113.479 17.2463C113.479 16.3077 113.649 15.3989 113.987 14.5169C114.297 13.6646 114.777 12.8688 115.399 12.1575C117.29 9.99653 120.366 9.37144 122.962 10.566C123.781 10.9351 124.515 11.5046 125.107 12.1575C125.7 12.8123 126.152 13.5505 126.49 14.375C126.8 15.142 126.97 15.9664 126.998 16.7909C126.97 17.928 126.405 18.4965 125.305 18.4965M117.233 15.9664H123.188C123.132 15.1995 122.793 14.4593 122.257 13.8908C121.72 13.3511 120.959 13.0663 120.196 13.0951C119.434 13.0663 118.728 13.3511 118.192 13.8908C117.656 14.4603 117.318 15.1985 117.233 15.9664Z" fill="#171717"/>
<rect x="5.34741" y="5.33337" width="21.3895" height="21.3333" fill="white"/>
<path d="M30.9862 6.52502C30.2693 3.57888 28.4285 1.73527 25.4323 1.04596C22.3518 0.35856 19.2455 0 16.1115 0C12.9775 0 9.89703 0.35856 6.90179 1.07376C3.95919 1.76212 1.95184 3.38618 1.20901 6.36108C0.413533 9.49895 0 12.7471 0 15.9952C0 19.2433 0.358012 22.3841 1.09988 25.4673C1.81399 28.4144 3.6567 30.259 6.6529 30.9473C12.7573 32.3499 19.0809 32.3499 25.1834 30.9473C28.1269 30.259 30.1333 28.633 30.8742 25.6322C31.6716 22.4943 32.0842 19.2443 32.0842 15.9942C32.0842 12.7442 31.7281 9.60729 30.9853 6.52406L30.9862 6.52502ZM8.1108 18.9164C8.02847 18.833 7.94615 18.7506 7.86382 18.6681C7.50677 18.2539 7.28564 17.7036 7.23108 17.1265L7.09419 9.196C7.06643 8.59105 7.47901 8.36863 7.97295 8.72719L15.5075 14.1784L8.46881 19.2165L8.11175 18.9155L8.1108 18.9164ZM25.0187 17.1811C24.9651 17.8685 24.6617 18.5032 24.14 18.9701L16.9912 24.6428C16.4705 25.0292 15.7822 25.0292 15.2586 24.6428L10.0636 20.458L9.07283 19.6872L16.1374 14.6214L19.6026 12.144L24.4693 8.67254C24.8828 8.5086 25.1556 8.7291 25.1556 9.2516L25.0187 17.1811Z" fill="#FE6446"/>
</g>
<defs>
<clipPath id="clip0_5105_1246">
<rect width="127" height="32" fill="white"/>
</clipPath>
</defs>
</svg>
