<svg width="48" height="48" viewBox="0 0 48 48" fill="none" xmlns="http://www.w3.org/2000/svg">
<rect x="8" y="7.99988" width="31.9997" height="31.9997" fill="white"/>
<path d="M46.3575 9.7878C45.2848 5.36865 42.5309 2.60326 38.0484 1.56929C33.4399 0.538201 28.7928 0.000366211 24.1041 0.000366211C19.4154 0.000366211 14.8069 0.538201 10.3259 1.61099C5.92364 2.64352 2.92053 5.0796 1.80923 9.5419C0.619154 14.2487 0.000488281 19.1208 0.000488281 23.993C0.000488281 28.8651 0.536092 33.5762 1.64597 38.201C2.71431 42.6216 5.4711 45.3884 9.95356 46.421C19.086 48.5248 28.5465 48.5248 37.6761 46.421C42.0798 45.3884 45.0815 42.9495 46.1899 38.4483C47.3828 33.7416 48.0001 28.8666 48.0001 23.9915C48.0001 19.1165 47.4673 14.4112 46.356 9.78637L46.3575 9.7878ZM12.1346 28.3747C12.0115 28.2496 11.8883 28.126 11.7652 28.0023C11.231 27.381 10.9002 26.5556 10.8185 25.6899L10.6138 13.7942C10.5722 12.8868 11.1895 12.5532 11.9284 13.091L23.2005 21.2678L12.6702 28.8249L12.1361 28.3733L12.1346 28.3747ZM37.4298 25.7718C37.3496 26.8029 36.8956 27.7549 36.1151 28.4553L25.4202 36.9643C24.6411 37.5438 23.6115 37.5438 22.8281 36.9643L15.0561 30.6871L13.5739 29.5309L24.1428 21.9322L29.327 18.2163L36.6077 13.0091C37.2264 12.7632 37.6346 13.0939 37.6346 13.8776L37.4298 25.7718Z" fill="#FE6446"/>
</svg>
